<svg width="24" height="24" viewBox="0 0 24 24" fill="none" xmlns="http://www.w3.org/2000/svg">
<path d="M3.00003 13H4.00003V20C4.00003 21.103 4.89703 22 6.00003 22H18C19.103 22 20 21.103 20 20V13H21C21.1978 13 21.3911 12.9413 21.5555 12.8314C21.7199 12.7215 21.848 12.5654 21.9237 12.3827C21.9994 12.2 22.0192 11.9989 21.9806 11.805C21.942 11.611 21.8468 11.4329 21.707 11.293L12.707 2.29302C12.6142 2.20007 12.504 2.12633 12.3827 2.07602C12.2614 2.02571 12.1314 1.99982 12 1.99982C11.8687 1.99982 11.7387 2.02571 11.6173 2.07602C11.496 2.12633 11.3858 2.20007 11.293 2.29302L2.29303 11.293C2.15322 11.4329 2.05802 11.611 2.01945 11.805C1.98088 11.9989 2.00068 12.2 2.07635 12.3827C2.15202 12.5654 2.28016 12.7215 2.44457 12.8314C2.60898 12.9413 2.80228 13 3.00003 13ZM10 20V15H14V20H10ZM12 4.41402L18 10.414V15L18.001 20H16V15C16 13.897 15.103 13 14 13H10C8.89703 13 8.00003 13.897 8.00003 15V20H6.00003V10.414L12 4.41402Z" fill="white"/>
</svg>
